<?xml version="1.0" encoding="utf-8"?>
<!-- Generator: Adobe Illustrator 24.0.0, SVG Export Plug-In . SVG Version: 6.00 Build 0)  -->
<svg version="1.1" id="Livello_1" xmlns="http://www.w3.org/2000/svg" xmlns:xlink="http://www.w3.org/1999/xlink" x="0px" y="0px"
	 viewBox="0 0 455 146" style="enable-background:new 0 0 455 146;" xml:space="preserve">
<style type="text/css">
	.st0{fill:#FFFFFF;}
</style>
<g>
	<path class="st0" d="M94.3,124.3l2.1-8.8H93l0.4-1.9h9.6l-0.5,1.9h-3.4l-2.1,8.8H94.3z"/>
	<path class="st0" d="M103.7,119l1.3-5.5h2.7l-1.4,5.9c-0.1,0.2-0.1,0.4-0.1,0.6c0,0.2,0,0.4,0,0.6c0,0.6,0.1,1.1,0.4,1.4
		c0.3,0.3,0.8,0.5,1.5,0.5c0.6,0,1.1-0.2,1.6-0.6s0.7-1.1,1-2.1l1.5-6.2h2.7l-1.5,6.2c-0.4,1.6-1,2.9-1.9,3.6s-2,1.1-3.4,1.1
		c-1.5,0-2.7-0.3-3.5-0.9s-1.2-1.5-1.2-2.8c0-0.2,0-0.5,0.1-0.8C103.5,119.6,103.6,119.3,103.7,119z"/>
	<path class="st0" d="M117.7,124.3l2.1-8.8h-3.4l0.4-1.9h9.6l-0.5,1.9h-3.4l-2.1,8.8H117.7z"/>
	<path class="st0" d="M128.3,124.3l2.1-8.8H127l0.4-1.9h9.6l-0.5,1.9h-3.4l-2.1,8.8H128.3z"/>
	<path class="st0" d="M141.5,124.5c-0.7,0-1.4-0.1-2-0.3c-0.6-0.2-1.1-0.5-1.5-0.9s-0.8-0.9-1-1.4c-0.2-0.6-0.4-1.2-0.4-1.9
		c0-1,0.2-1.8,0.5-2.6s0.8-1.5,1.4-2.1s1.3-1,2.1-1.4s1.6-0.5,2.5-0.5c0.7,0,1.4,0.1,2,0.3c0.6,0.2,1.1,0.5,1.5,0.9s0.8,0.9,1,1.4
		c0.2,0.6,0.4,1.2,0.4,1.9c0,1-0.2,1.8-0.5,2.6s-0.8,1.5-1.4,2.1s-1.3,1-2.1,1.4S142.4,124.5,141.5,124.5z M141.7,122.5
		c0.5,0,0.9-0.1,1.4-0.4c0.4-0.2,0.8-0.6,1.2-1c0.4-0.4,0.6-0.9,0.8-1.4c0.2-0.5,0.3-1.1,0.3-1.8c0-0.9-0.2-1.5-0.6-2
		s-0.9-0.7-1.6-0.7c-0.5,0-0.9,0.1-1.4,0.4c-0.4,0.2-0.8,0.6-1.2,1c-0.4,0.4-0.6,0.9-0.8,1.4s-0.3,1.1-0.3,1.8c0,0.9,0.2,1.5,0.6,2
		S140.9,122.5,141.7,122.5z"/>
	<path class="st0" d="M162.2,127.2c-2.7,0-4.5-1-5.4-3c-1-0.3-1.7-0.8-2.2-1.5c-0.5-0.7-0.8-1.7-0.8-2.8c0-1,0.2-1.8,0.5-2.6
		s0.8-1.5,1.4-2.1s1.3-1,2.1-1.4s1.6-0.5,2.5-0.5c0.7,0,1.4,0.1,2,0.3c0.6,0.2,1.1,0.5,1.5,0.9s0.8,0.9,1,1.4
		c0.2,0.6,0.4,1.2,0.4,1.9c0,0.9-0.1,1.7-0.4,2.4c-0.3,0.7-0.7,1.4-1.2,2c-0.5,0.6-1.1,1-1.8,1.4c-0.7,0.4-1.4,0.6-2.2,0.7
		c0.3,0.3,0.6,0.6,1.1,0.7c0.5,0.1,1,0.2,1.6,0.2c0.3,0,0.5,0,0.7,0s0.4-0.1,0.6-0.1l0.1,1.7c-0.2,0.1-0.5,0.1-0.8,0.2
		C162.7,127.2,162.4,127.2,162.2,127.2z M158.8,122.5c0.5,0,0.9-0.1,1.4-0.4c0.4-0.2,0.8-0.6,1.2-1c0.4-0.4,0.6-0.9,0.8-1.4
		c0.2-0.5,0.3-1.1,0.3-1.8c0-0.9-0.2-1.5-0.6-2s-0.9-0.7-1.6-0.7c-0.5,0-0.9,0.1-1.4,0.4c-0.4,0.2-0.8,0.6-1.2,1
		c-0.4,0.4-0.6,0.9-0.8,1.4s-0.3,1.1-0.3,1.8c0,0.9,0.2,1.5,0.6,2S158,122.5,158.8,122.5z"/>
	<path class="st0" d="M167.5,119l1.3-5.5h2.7l-1.4,5.9c-0.1,0.2-0.1,0.4-0.1,0.6c0,0.2,0,0.4,0,0.6c0,0.6,0.1,1.1,0.4,1.4
		c0.3,0.3,0.8,0.5,1.5,0.5c0.6,0,1.1-0.2,1.6-0.6s0.7-1.1,1-2.1l1.5-6.2h2.7l-1.5,6.2c-0.4,1.6-1,2.9-1.9,3.6s-2,1.1-3.4,1.1
		c-1.5,0-2.7-0.3-3.5-0.9s-1.2-1.5-1.2-2.8c0-0.2,0-0.5,0.1-0.8C167.4,119.6,167.4,119.3,167.5,119z"/>
	<path class="st0" d="M179.1,124.3l2.6-10.8h7.7l-0.4,1.9h-5l-0.6,2.3h4.2l-0.4,1.9H183l-0.7,2.7h5.2l-0.4,1.9L179.1,124.3
		L179.1,124.3z"/>
	<path class="st0" d="M189.6,124.3l2.6-10.8h2.7l-2.1,8.9h4.9l-0.4,1.9L189.6,124.3L189.6,124.3z"/>
	<path class="st0" d="M199.6,124.3l2.6-10.8h2.7l-2.1,8.9h4.9l-0.4,1.9L199.6,124.3L199.6,124.3z"/>
	<path class="st0" d="M213.7,124.5c-0.7,0-1.4-0.1-2-0.3c-0.6-0.2-1.1-0.5-1.5-0.9s-0.8-0.9-1-1.4c-0.2-0.6-0.4-1.2-0.4-1.9
		c0-1,0.2-1.8,0.5-2.6c0.4-0.8,0.8-1.5,1.4-2.1s1.3-1,2.1-1.4s1.6-0.5,2.5-0.5c0.7,0,1.4,0.1,2,0.3s1.1,0.5,1.5,0.9s0.8,0.9,1,1.4
		c0.2,0.6,0.4,1.2,0.4,1.9c0,1-0.2,1.8-0.5,2.6c-0.4,0.8-0.8,1.5-1.4,2.1s-1.3,1-2.1,1.4S214.6,124.5,213.7,124.5z M213.9,122.5
		c0.5,0,0.9-0.1,1.4-0.4c0.4-0.2,0.8-0.6,1.2-1s0.6-0.9,0.8-1.4c0.2-0.5,0.3-1.1,0.3-1.8c0-0.9-0.2-1.5-0.6-2s-0.9-0.7-1.6-0.7
		c-0.5,0-0.9,0.1-1.4,0.4c-0.4,0.2-0.8,0.6-1.2,1s-0.6,0.9-0.8,1.4s-0.3,1.1-0.3,1.8c0,0.9,0.2,1.5,0.6,2S213.2,122.5,213.9,122.5z"
		/>
	<path class="st0" d="M230.9,124.5c-0.8,0-1.4-0.1-2-0.3c-0.6-0.2-1.1-0.5-1.5-0.9s-0.8-0.9-1-1.4c-0.2-0.6-0.4-1.2-0.4-1.9
		c0-0.9,0.2-1.8,0.5-2.6c0.4-0.8,0.9-1.5,1.5-2.1c0.6-0.6,1.4-1.1,2.2-1.4s1.8-0.5,2.7-0.5c0.8,0,1.4,0.1,2,0.5
		c0.6,0.3,1.1,0.7,1.4,1.3l-1.9,1.2c-0.2-0.3-0.5-0.6-0.8-0.7s-0.6-0.2-1-0.2c-0.6,0-1.1,0.1-1.5,0.4s-0.9,0.6-1.3,1
		c-0.4,0.4-0.6,0.9-0.9,1.5c-0.2,0.5-0.3,1.1-0.3,1.7c0,0.8,0.2,1.5,0.6,2c0.4,0.5,1.1,0.7,2.1,0.7c0.4,0,0.8-0.1,1.1-0.2
		c0.4-0.1,0.7-0.4,1.1-0.6l1.1,1.5c-0.2,0.1-0.4,0.3-0.7,0.5c-0.3,0.1-0.6,0.3-0.9,0.4s-0.7,0.2-1.1,0.3
		C231.7,124.4,231.3,124.5,230.9,124.5z"/>
	<path class="st0" d="M236.7,124.3l2.6-10.8h2.7l-1,4.2h4.4l1-4.2h2.7l-2.6,10.8h-2.8l1.1-4.6h-4.4l-1.1,4.6H236.7z"/>
	<path class="st0" d="M249.6,124.3l2.6-10.8h7.7l-0.4,1.9h-5l-0.6,2.3h4.2l-0.4,1.9h-4.2l-0.7,2.7h5.2l-0.4,1.9L249.6,124.3
		L249.6,124.3z"/>
	<path class="st0" d="M269.6,124.5c-0.8,0-1.4-0.1-2-0.3c-0.6-0.2-1.1-0.5-1.5-0.9s-0.8-0.9-1-1.4c-0.2-0.6-0.4-1.2-0.4-1.9
		c0-0.9,0.2-1.8,0.5-2.6c0.4-0.8,0.9-1.5,1.5-2.1c0.6-0.6,1.4-1.1,2.2-1.4s1.8-0.5,2.7-0.5c0.8,0,1.4,0.1,2,0.5
		c0.6,0.3,1.1,0.7,1.4,1.3l-1.9,1.2c-0.2-0.3-0.5-0.6-0.8-0.7s-0.6-0.2-1-0.2c-0.6,0-1.1,0.1-1.5,0.4c-0.5,0.3-0.9,0.6-1.3,1
		s-0.6,0.9-0.9,1.5c-0.2,0.5-0.3,1.1-0.3,1.7c0,0.8,0.2,1.5,0.6,2s1.1,0.7,2.1,0.7c0.4,0,0.8-0.1,1.1-0.2c0.4-0.1,0.7-0.4,1.1-0.6
		l1.1,1.5c-0.2,0.1-0.4,0.3-0.7,0.5c-0.3,0.1-0.6,0.3-0.9,0.4s-0.7,0.2-1.1,0.3S270,124.5,269.6,124.5z"/>
	<path class="st0" d="M275.4,124.3l2.6-10.8h7.7l-0.4,1.9h-5l-0.6,2.3h4.2l-0.4,1.9h-4.2l-0.7,2.7h5.2l-0.4,1.9L275.4,124.3
		L275.4,124.3z"/>
	<path class="st0" d="M285.9,124.3l2.6-10.8h4.1c0.6,0,1.2,0,1.8,0.1c0.5,0.1,1,0.3,1.4,0.5s0.7,0.5,0.9,0.9
		c0.2,0.4,0.3,0.8,0.3,1.3c0,0.5-0.1,1-0.3,1.4s-0.4,0.8-0.7,1.1c-0.3,0.3-0.6,0.6-1,0.8c-0.4,0.2-0.9,0.4-1.3,0.5l2,4.3h-2.9
		l-1.7-3.9h-1.6l-0.9,3.9L285.9,124.3L285.9,124.3z M290,118.5h1.4c1,0,1.7-0.2,2.2-0.5c0.5-0.4,0.7-0.8,0.7-1.4
		c0-0.5-0.2-0.8-0.6-1c-0.4-0.2-0.9-0.3-1.6-0.3h-1.4L290,118.5z"/>
	<path class="st0" d="M303.3,124.5c-0.8,0-1.4-0.1-2-0.3c-0.6-0.2-1.1-0.5-1.5-0.9s-0.8-0.9-1-1.4c-0.2-0.6-0.4-1.2-0.4-1.9
		c0-0.9,0.2-1.8,0.5-2.6c0.4-0.8,0.9-1.5,1.5-2.1c0.6-0.6,1.4-1.1,2.2-1.4s1.8-0.5,2.7-0.5c0.8,0,1.4,0.1,2,0.5
		c0.6,0.3,1.1,0.7,1.4,1.3l-1.9,1.2c-0.2-0.3-0.5-0.6-0.8-0.7s-0.6-0.2-1-0.2c-0.6,0-1.1,0.1-1.5,0.4c-0.5,0.3-0.9,0.6-1.3,1
		s-0.6,0.9-0.9,1.5c-0.2,0.5-0.3,1.1-0.3,1.7c0,0.8,0.2,1.5,0.6,2s1.1,0.7,2.1,0.7c0.4,0,0.8-0.1,1.1-0.2c0.4-0.1,0.7-0.4,1.1-0.6
		l1.1,1.5c-0.2,0.1-0.4,0.3-0.7,0.5c-0.3,0.1-0.6,0.3-0.9,0.4s-0.7,0.2-1.1,0.3S303.7,124.5,303.3,124.5z"/>
	<path class="st0" d="M309,124.3l2.6-10.8h2.7l-1,4.2h4.4l1-4.2h2.7l-2.6,10.8h-2.8l1.1-4.6h-4.4l-1.1,4.6H309z"/>
	<path class="st0" d="M322,124.3l2.6-10.8h2.7l-2.6,10.8H322z"/>
	<path class="st0" d="M331.8,124.3l2.6-10.8h7.7l-0.4,1.9h-5l-0.6,2.3h4.2l-0.4,1.9h-4.2l-0.7,2.7h5.2l-0.4,1.9L331.8,124.3
		L331.8,124.3z M339.2,113.1l-3.3-2.2l1.9-1.4l2.9,2.5L339.2,113.1z"/>
	<path class="st0" d="M355.3,127.2c-2.7,0-4.5-1-5.4-3c-1-0.3-1.7-0.8-2.2-1.5c-0.5-0.7-0.8-1.7-0.8-2.8c0-1,0.2-1.8,0.5-2.6
		c0.4-0.8,0.8-1.5,1.4-2.1s1.3-1,2.1-1.4s1.6-0.5,2.5-0.5c0.7,0,1.4,0.1,2,0.3s1.1,0.5,1.5,0.9c0.4,0.4,0.8,0.9,1,1.4
		c0.2,0.6,0.4,1.2,0.4,1.9c0,0.9-0.1,1.7-0.4,2.4c-0.3,0.7-0.7,1.4-1.2,2c-0.5,0.6-1.1,1-1.8,1.4c-0.7,0.4-1.4,0.6-2.2,0.7
		c0.3,0.3,0.6,0.6,1.1,0.7c0.5,0.1,1,0.2,1.6,0.2c0.3,0,0.5,0,0.7,0s0.4-0.1,0.6-0.1l0.1,1.7c-0.2,0.1-0.5,0.1-0.8,0.2
		C355.8,127.2,355.6,127.2,355.3,127.2z M351.9,122.5c0.5,0,0.9-0.1,1.4-0.4c0.4-0.2,0.8-0.6,1.2-1c0.3-0.4,0.6-0.9,0.8-1.4
		c0.2-0.5,0.3-1.1,0.3-1.8c0-0.9-0.2-1.5-0.6-2s-0.9-0.7-1.6-0.7c-0.5,0-0.9,0.1-1.4,0.4c-0.4,0.2-0.8,0.6-1.2,1s-0.6,0.9-0.8,1.4
		c-0.2,0.5-0.3,1.1-0.3,1.8c0,0.9,0.2,1.5,0.6,2C350.6,122.3,351.1,122.5,351.9,122.5z"/>
	<path class="st0" d="M360.6,119l1.3-5.5h2.7l-1.4,5.9c0,0.2-0.1,0.4-0.1,0.6s0,0.4,0,0.6c0,0.6,0.1,1.1,0.4,1.4s0.8,0.5,1.5,0.5
		c0.6,0,1.1-0.2,1.5-0.6c0.4-0.4,0.7-1.1,1-2.1l1.5-6.2h2.7l-1.5,6.2c-0.4,1.6-1,2.9-1.9,3.6c-0.9,0.8-2,1.1-3.4,1.1
		c-1.5,0-2.7-0.3-3.5-0.9s-1.2-1.5-1.2-2.8c0-0.2,0-0.5,0.1-0.8C360.5,119.6,360.5,119.3,360.6,119z"/>
	<path class="st0" d="M372.2,124.3l2.6-10.8h2.7l-2.6,10.8H372.2z"/>
	<path class="st0" d="M379.8,124.5c-0.4,0-0.8-0.1-1-0.3s-0.4-0.5-0.4-0.9c0-0.2,0-0.4,0.1-0.6c0.1-0.2,0.2-0.4,0.4-0.5
		c0.2-0.1,0.4-0.3,0.6-0.4s0.5-0.1,0.8-0.1c0.4,0,0.8,0.1,1,0.4c0.3,0.2,0.4,0.5,0.4,0.9c0,0.2,0,0.4-0.1,0.6
		c-0.1,0.2-0.2,0.4-0.4,0.5c-0.2,0.1-0.4,0.3-0.6,0.4S380.1,124.5,379.8,124.5z M379.8,120.6l0.9-5.3l0.4-2.1h2.7l-0.6,2.1l-1.6,5.3
		H379.8z"/>
</g>
<g>
	<g>
		<path class="st0" d="M424,24.2v-5.4h2.2c0.3,0,0.6,0,1,0.1c0.3,0.1,0.5,0.1,0.8,0.3c0.2,0.1,0.4,0.3,0.5,0.5
			c0.1,0.2,0.2,0.5,0.2,0.8c0,0.4-0.1,0.8-0.4,1c-0.2,0.3-0.5,0.4-0.9,0.5l1.5,2.3h-1.3l-1.4-2.1h-1v2.1H424z M425.1,21.3h0.9
			c0.4,0,0.8-0.1,1-0.2c0.2-0.1,0.4-0.4,0.4-0.7s-0.1-0.5-0.4-0.6c-0.2-0.1-0.6-0.2-1-0.2h-0.9V21.3z"/>
	</g>
</g>
<path class="st0" d="M98.6,17.1H74.5L45,67.4L58,72.7l-18.9,4.8L27.7,96.9h20.2l10.5-19h35.5l3.8,19h19L98.6,17.1z M65.4,65.2
	l18.7-33.7h0.5l6.7,33.7H65.4z"/>
<path class="st0" d="M120.3,84.3l38.2-34.1h-30l2.3-12.4h52.9l-2.4,12.5l-38.4,34.2h31.9l-2.3,12.4h-54.5L120.3,84.3z"/>
<path class="st0" d="M242,37.8h-52.9l-2.3,12.4h30l-38.2,34.1l-2.4,12.6h42.1l11.5-12.4h-28.7l38.4-34.2L242,37.8z"/>
<path class="st0" d="M305.4,43.9c2.3-3.7,5.1-6.9,8.5-9.5c4.8-3.6,10.3-5.5,16.7-5.5c9.9,0,15.9,4.3,17.9,13l18.4-1.5
	c-0.8-4.9-2.8-9.3-6.1-13c-3.3-3.8-7.4-6.7-12.4-8.8s-10.6-3.2-16.8-3.2c-9.5,0-18.1,2.1-25.6,6.3c-0.3,0.1-0.6,0.3-0.9,0.5
	c-2.2,1.3-4.2,2.7-6.1,4.2c-2.4,1.9-4.5,4-6.5,6.3c-1.8,2.1-3.3,4.3-4.8,6.7c-0.3,0.4-0.5,0.8-0.7,1.2c-0.6,1.1-1.1,2.1-1.6,3.2
	L305.4,43.9L305.4,43.9z M323.7,67.6h21c-2,5.1-5.5,9.4-10.3,12.6c-4.9,3.3-10.4,4.9-16.5,4.9c-5.8,0-10.3-1.6-13.6-4.7
	c-3.3-3.1-5-7.7-5-13.8c0-6.3,1.3-12.4,3.8-18.2c0.4-0.9,0.8-1.7,1.2-2.6l-4.8,3.4l-18.7,13.1c-0.1,1.3-0.1,2.7-0.1,4.1
	c0,6.5,1.6,12.2,4.7,17s7.5,8.6,13,11.2c5.5,2.6,11.6,3.9,18.4,3.9c11.6,0,21.1-3.6,28.5-10.7l-1.8,8.9h13l8-41.9h-38.3L323.7,67.6z
	"/>
<path class="st0" d="M393.8,98.3c-8.6,0-15.5-2.2-20.7-6.5s-7.8-10.2-7.8-17.6c0-6.8,1.5-13.1,4.6-18.8c3-5.8,7.5-10.4,13.4-13.8
	c5.9-3.4,13-5.1,21.2-5.1c8.6,0,15.5,2.2,20.7,6.5c5.2,4.3,7.8,10.2,7.8,17.6c0,6.9-1.5,13.1-4.6,18.9c-3,5.7-7.5,10.3-13.4,13.7
	C409.1,96.5,402,98.3,393.8,98.3z M403.8,48.1c-4.9,0-8.9,1.5-12,4.6c-3.2,3.1-5.5,6.6-6.9,10.8c-1.4,4.1-2.1,7.8-2.1,11.1
	c0,3.8,1,6.7,3.1,8.8s5,3.1,8.7,3.1c5,0,9-1.5,12.2-4.6s5.5-6.6,6.9-10.8c1.4-4.1,2.1-7.8,2.1-11.1c0-3.7-1-6.6-3.2-8.8
	C410.5,49.2,407.5,48.1,403.8,48.1z"/>
<g>
	<path class="st0" d="M285.8,46.9h12l-16.5,11.6l-49.9,35l-4.8,3.4l-7.5,5.3c-0.1,0.1-0.3,0.1-0.5,0.1c-0.2,0-0.4-0.1-0.6-0.3
		c-0.3-0.3-0.3-0.8,0-1.1l3.7-4L233,84.7l13.5-14.6c1-1.1,1.2-2.7,0.3-4c-0.6-0.9-1.7-1.4-2.8-1.4h-11.2l42.5-49.4h29.7L282.2,40
		c-1.9,2.3-1.4,4-0.4,5.2C282.8,46.3,284.3,46.9,285.8,46.9z"/>
</g>
<polygon class="st0" points="61.8,17.1 69,17.1 42,65.2 36.3,62.5 "/>
<polygon class="st0" points="17.1,96.9 25.5,81 33.5,78.8 23.9,96.9 "/>
<g>
	<path class="st0" d="M426.4,26.8c-2.9,0-5.3-2.4-5.3-5.3s2.4-5.3,5.3-5.3s5.3,2.4,5.3,5.3C431.7,24.4,429.3,26.8,426.4,26.8z
		 M426.4,17.2c-2.4,0-4.3,1.9-4.3,4.3s2,4.3,4.3,4.3c2.4,0,4.3-1.9,4.3-4.3S428.8,17.2,426.4,17.2z"/>
</g>
</svg>
