<?xml version="1.0" encoding="utf-8"?>
<!-- Generator: Adobe Illustrator 24.0.0, SVG Export Plug-In . SVG Version: 6.00 Build 0)  -->
<svg version="1.1" id="Livello_1" xmlns="http://www.w3.org/2000/svg" xmlns:xlink="http://www.w3.org/1999/xlink" x="0px" y="0px"
	 viewBox="0 0 548.13 524.55" style="enable-background:new 0 0 548.13 524.55;" xml:space="preserve">
<style type="text/css">
	.st0{fill:#FFFFFF;}
</style>
<g>
	<path class="st0" d="M143.28,315.29l2.11-8.84h-3.41l0.44-1.91h9.56l-0.46,1.91h-3.41l-2.11,8.84H143.28z"/>
	<path class="st0" d="M152.66,310.01l1.33-5.48h2.73l-1.41,5.89c-0.05,0.22-0.09,0.43-0.12,0.64c-0.03,0.21-0.04,0.41-0.04,0.61
		c0,0.6,0.15,1.07,0.44,1.39c0.29,0.32,0.8,0.48,1.53,0.48c0.62,0,1.14-0.21,1.55-0.63c0.41-0.42,0.74-1.14,0.98-2.14l1.51-6.24
		h2.67l-1.51,6.2c-0.4,1.65-1.03,2.85-1.9,3.61s-2,1.14-3.38,1.14c-1.54,0-2.7-0.31-3.48-0.92s-1.17-1.55-1.17-2.83
		c0-0.24,0.03-0.52,0.08-0.83C152.54,310.59,152.6,310.29,152.66,310.01z"/>
	<path class="st0" d="M166.69,315.29l2.11-8.84h-3.41l0.44-1.91h9.56l-0.46,1.91h-3.41l-2.11,8.84H166.69z"/>
	<path class="st0" d="M177.28,315.29l2.11-8.84h-3.41l0.44-1.91h9.56l-0.46,1.91h-3.41l-2.11,8.84H177.28z"/>
	<path class="st0" d="M190.53,315.48c-0.74,0-1.41-0.1-2.01-0.31c-0.6-0.2-1.11-0.5-1.53-0.89s-0.75-0.87-0.99-1.44
		c-0.23-0.57-0.35-1.21-0.35-1.92c0-0.95,0.18-1.82,0.54-2.63c0.36-0.81,0.84-1.51,1.44-2.1c0.6-0.59,1.3-1.05,2.1-1.38
		s1.63-0.5,2.51-0.5c0.74,0,1.41,0.1,2.01,0.31c0.6,0.21,1.11,0.51,1.53,0.9s0.75,0.87,0.99,1.43c0.23,0.56,0.35,1.2,0.35,1.91
		c0,0.95-0.18,1.82-0.54,2.63c-0.36,0.81-0.84,1.51-1.44,2.1c-0.6,0.59-1.3,1.05-2.1,1.38S191.41,315.48,190.53,315.48z
		 M190.67,313.54c0.46,0,0.92-0.12,1.35-0.35c0.44-0.24,0.83-0.56,1.18-0.97c0.35-0.41,0.62-0.88,0.83-1.43
		c0.21-0.54,0.31-1.13,0.31-1.76c0-0.86-0.19-1.53-0.57-2.01s-0.93-0.73-1.64-0.73c-0.46,0-0.92,0.12-1.35,0.35
		c-0.44,0.24-0.83,0.56-1.18,0.96c-0.35,0.4-0.62,0.87-0.84,1.42s-0.32,1.13-0.32,1.76c0,0.86,0.19,1.53,0.58,2.02
		S189.95,313.54,190.67,313.54z"/>
	<path class="st0" d="M211.22,318.19c-2.7,0-4.51-0.98-5.44-2.95c-0.96-0.29-1.7-0.79-2.24-1.53c-0.54-0.73-0.81-1.66-0.81-2.78
		c0-0.95,0.18-1.82,0.54-2.63c0.36-0.81,0.84-1.51,1.44-2.1c0.6-0.59,1.3-1.05,2.1-1.38s1.63-0.5,2.51-0.5
		c0.74,0,1.41,0.1,2.01,0.31c0.6,0.21,1.11,0.51,1.53,0.9s0.75,0.87,0.99,1.43c0.23,0.56,0.35,1.2,0.35,1.91
		c0,0.86-0.15,1.66-0.44,2.39c-0.29,0.74-0.69,1.39-1.19,1.96c-0.5,0.57-1.08,1.04-1.75,1.42c-0.67,0.37-1.39,0.62-2.16,0.74
		c0.27,0.34,0.64,0.59,1.14,0.74c0.49,0.15,1.02,0.23,1.57,0.23c0.27,0,0.5-0.01,0.7-0.04c0.2-0.03,0.4-0.06,0.62-0.11l0.12,1.7
		c-0.23,0.08-0.49,0.14-0.8,0.19C211.72,318.17,211.45,318.19,211.22,318.19z M207.76,313.54c0.46,0,0.92-0.12,1.35-0.35
		c0.44-0.24,0.83-0.56,1.18-0.97c0.35-0.41,0.62-0.88,0.83-1.43c0.21-0.54,0.31-1.13,0.31-1.76c0-0.86-0.19-1.53-0.57-2.01
		s-0.93-0.73-1.64-0.73c-0.46,0-0.92,0.12-1.35,0.35c-0.44,0.24-0.83,0.56-1.18,0.96c-0.35,0.4-0.62,0.87-0.84,1.42
		s-0.32,1.13-0.32,1.76c0,0.86,0.19,1.53,0.58,2.02S207.04,313.54,207.76,313.54z"/>
	<path class="st0" d="M216.5,310.01l1.33-5.48h2.73l-1.41,5.89c-0.05,0.22-0.09,0.43-0.12,0.64c-0.03,0.21-0.04,0.41-0.04,0.61
		c0,0.6,0.15,1.07,0.44,1.39c0.29,0.32,0.8,0.48,1.53,0.48c0.62,0,1.14-0.21,1.55-0.63c0.41-0.42,0.74-1.14,0.98-2.14l1.51-6.24
		h2.67l-1.51,6.2c-0.4,1.65-1.03,2.85-1.9,3.61s-2,1.14-3.38,1.14c-1.54,0-2.7-0.31-3.48-0.92s-1.17-1.55-1.17-2.83
		c0-0.24,0.03-0.52,0.08-0.83C216.38,310.59,216.44,310.29,216.5,310.01z"/>
	<path class="st0" d="M228.11,315.29l2.61-10.76h7.69l-0.44,1.9h-5l-0.56,2.34h4.24l-0.44,1.9h-4.24l-0.68,2.72h5.16l-0.44,1.9
		H228.11z"/>
	<path class="st0" d="M238.61,315.29l2.61-10.76h2.73l-2.15,8.86h4.92l-0.44,1.9H238.61z"/>
	<path class="st0" d="M248.57,315.29l2.61-10.76h2.73l-2.15,8.86h4.92l-0.44,1.9H248.57z"/>
	<path class="st0" d="M262.73,315.48c-0.74,0-1.41-0.1-2.01-0.31c-0.6-0.2-1.11-0.5-1.53-0.89s-0.75-0.87-0.99-1.44
		c-0.23-0.57-0.35-1.21-0.35-1.92c0-0.95,0.18-1.82,0.54-2.63c0.36-0.81,0.84-1.51,1.44-2.1c0.6-0.59,1.3-1.05,2.1-1.38
		s1.63-0.5,2.51-0.5c0.74,0,1.41,0.1,2.01,0.31c0.6,0.21,1.11,0.51,1.53,0.9s0.75,0.87,0.99,1.43c0.23,0.56,0.35,1.2,0.35,1.91
		c0,0.95-0.18,1.82-0.54,2.63c-0.36,0.81-0.84,1.51-1.44,2.1c-0.6,0.59-1.3,1.05-2.1,1.38S263.61,315.48,262.73,315.48z
		 M262.87,313.54c0.46,0,0.92-0.12,1.35-0.35c0.44-0.24,0.83-0.56,1.18-0.97c0.35-0.41,0.62-0.88,0.83-1.43
		c0.21-0.54,0.31-1.13,0.31-1.76c0-0.86-0.19-1.53-0.57-2.01s-0.93-0.73-1.64-0.73c-0.46,0-0.92,0.12-1.35,0.35
		c-0.44,0.24-0.83,0.56-1.18,0.96c-0.35,0.4-0.62,0.87-0.84,1.42s-0.32,1.13-0.32,1.76c0,0.86,0.19,1.53,0.58,2.02
		S262.16,313.54,262.87,313.54z"/>
	<path class="st0" d="M279.86,315.48c-0.76,0-1.44-0.1-2.04-0.31c-0.6-0.2-1.12-0.5-1.55-0.89c-0.43-0.39-0.76-0.86-1-1.42
		c-0.23-0.56-0.35-1.19-0.35-1.89c0-0.92,0.18-1.79,0.54-2.6c0.36-0.81,0.85-1.51,1.46-2.11c0.62-0.6,1.35-1.07,2.19-1.42
		c0.84-0.35,1.75-0.52,2.72-0.52c0.76,0,1.43,0.15,2.02,0.45c0.59,0.3,1.07,0.72,1.44,1.26l-1.87,1.19
		c-0.24-0.32-0.5-0.56-0.78-0.71c-0.28-0.15-0.6-0.23-0.96-0.23c-0.56,0-1.08,0.12-1.55,0.37s-0.9,0.58-1.25,1
		c-0.36,0.42-0.64,0.9-0.85,1.45c-0.21,0.55-0.31,1.12-0.31,1.72c0,0.84,0.21,1.5,0.64,1.98c0.42,0.48,1.12,0.73,2.07,0.73
		c0.39,0,0.76-0.08,1.14-0.23c0.37-0.15,0.73-0.35,1.08-0.59l1.14,1.45c-0.2,0.15-0.43,0.31-0.7,0.46c-0.27,0.15-0.56,0.29-0.9,0.42
		s-0.69,0.23-1.09,0.31C280.72,315.44,280.3,315.48,279.86,315.48z"/>
	<path class="st0" d="M285.66,315.29l2.61-10.76H291l-1.04,4.17h4.44l1-4.17h2.73l-2.59,10.76h-2.75l1.14-4.6h-4.44l-1.08,4.6
		H285.66z"/>
	<path class="st0" d="M298.65,315.29l2.61-10.76h7.69l-0.44,1.9h-5l-0.56,2.34h4.24l-0.44,1.9h-4.24l-0.68,2.72h5.16l-0.44,1.9
		H298.65z"/>
	<path class="st0" d="M318.59,315.48c-0.76,0-1.44-0.1-2.04-0.31c-0.6-0.2-1.12-0.5-1.55-0.89s-0.76-0.86-1-1.42
		c-0.23-0.56-0.35-1.19-0.35-1.89c0-0.92,0.18-1.79,0.54-2.6c0.36-0.81,0.85-1.51,1.46-2.11c0.62-0.6,1.35-1.07,2.19-1.42
		c0.84-0.35,1.75-0.52,2.72-0.52c0.76,0,1.43,0.15,2.02,0.45c0.59,0.3,1.07,0.72,1.44,1.26l-1.87,1.19
		c-0.24-0.32-0.5-0.56-0.78-0.71c-0.28-0.15-0.6-0.23-0.96-0.23c-0.56,0-1.08,0.12-1.55,0.37c-0.48,0.25-0.9,0.58-1.25,1
		s-0.64,0.9-0.85,1.45c-0.21,0.55-0.31,1.12-0.31,1.72c0,0.84,0.21,1.5,0.64,1.98s1.12,0.73,2.07,0.73c0.38,0,0.76-0.08,1.14-0.23
		c0.37-0.15,0.73-0.35,1.08-0.59l1.14,1.45c-0.2,0.15-0.43,0.31-0.7,0.46c-0.27,0.15-0.56,0.29-0.9,0.42s-0.69,0.23-1.09,0.31
		S319.02,315.48,318.59,315.48z"/>
	<path class="st0" d="M324.38,315.29l2.61-10.76h7.69l-0.44,1.9h-5l-0.56,2.34h4.24l-0.44,1.9h-4.24l-0.68,2.72h5.16l-0.44,1.9
		H324.38z"/>
	<path class="st0" d="M334.88,315.29l2.61-10.76h4.06c0.64,0,1.23,0.05,1.77,0.15c0.54,0.1,1.01,0.26,1.4,0.48s0.7,0.51,0.93,0.86
		c0.23,0.35,0.34,0.78,0.34,1.27c0,0.51-0.08,0.96-0.25,1.36c-0.17,0.4-0.4,0.76-0.69,1.06c-0.29,0.31-0.64,0.57-1.05,0.79
		c-0.41,0.22-0.85,0.4-1.32,0.53l2.01,4.26h-2.87l-1.67-3.94h-1.59l-0.94,3.94H334.88z M339,309.55h1.38c0.97,0,1.7-0.17,2.19-0.52
		c0.49-0.35,0.74-0.82,0.74-1.41c0-0.46-0.19-0.79-0.56-0.99c-0.37-0.2-0.91-0.3-1.61-0.3h-1.38L339,309.55z"/>
	<path class="st0" d="M352.25,315.48c-0.76,0-1.44-0.1-2.04-0.31c-0.6-0.2-1.12-0.5-1.55-0.89s-0.76-0.86-1-1.42
		c-0.23-0.56-0.35-1.19-0.35-1.89c0-0.92,0.18-1.79,0.54-2.6c0.36-0.81,0.85-1.51,1.46-2.11c0.62-0.6,1.35-1.07,2.19-1.42
		c0.84-0.35,1.75-0.52,2.72-0.52c0.76,0,1.43,0.15,2.02,0.45c0.59,0.3,1.07,0.72,1.44,1.26l-1.87,1.19
		c-0.24-0.32-0.5-0.56-0.78-0.71c-0.28-0.15-0.6-0.23-0.96-0.23c-0.56,0-1.08,0.12-1.55,0.37c-0.48,0.25-0.9,0.58-1.25,1
		s-0.64,0.9-0.85,1.45c-0.21,0.55-0.31,1.12-0.31,1.72c0,0.84,0.21,1.5,0.64,1.98s1.12,0.73,2.07,0.73c0.38,0,0.76-0.08,1.14-0.23
		c0.37-0.15,0.73-0.35,1.08-0.59l1.14,1.45c-0.2,0.15-0.43,0.31-0.7,0.46c-0.27,0.15-0.56,0.29-0.9,0.42s-0.69,0.23-1.09,0.31
		S352.69,315.48,352.25,315.48z"/>
	<path class="st0" d="M358.04,315.29l2.61-10.76h2.73l-1.04,4.17h4.44l1-4.17h2.73l-2.59,10.76h-2.75l1.14-4.6h-4.44l-1.08,4.6
		H358.04z"/>
	<path class="st0" d="M371.03,315.29l2.61-10.76h2.73l-2.59,10.76H371.03z"/>
	<path class="st0" d="M380.83,315.29l2.61-10.76h7.69l-0.44,1.9h-5l-0.56,2.34h4.24l-0.44,1.9h-4.24l-0.68,2.72h5.16l-0.44,1.9
		H380.83z M388.16,304.13l-3.27-2.21l1.87-1.44l2.93,2.54L388.16,304.13z"/>
	<path class="st0" d="M404.34,318.19c-2.7,0-4.51-0.98-5.44-2.95c-0.96-0.29-1.7-0.79-2.24-1.53c-0.54-0.73-0.81-1.66-0.81-2.78
		c0-0.95,0.18-1.82,0.54-2.63c0.36-0.81,0.84-1.51,1.44-2.1c0.6-0.59,1.3-1.05,2.1-1.38s1.63-0.5,2.51-0.5
		c0.74,0,1.41,0.1,2.01,0.31c0.6,0.21,1.11,0.51,1.53,0.9c0.42,0.39,0.75,0.87,0.99,1.43c0.23,0.56,0.35,1.2,0.35,1.91
		c0,0.86-0.15,1.66-0.44,2.39c-0.29,0.74-0.69,1.39-1.19,1.96c-0.5,0.57-1.08,1.04-1.75,1.42c-0.67,0.37-1.39,0.62-2.16,0.74
		c0.27,0.34,0.64,0.59,1.14,0.74c0.49,0.15,1.02,0.23,1.57,0.23c0.27,0,0.5-0.01,0.7-0.04c0.2-0.03,0.4-0.06,0.62-0.11l0.12,1.7
		c-0.23,0.08-0.49,0.14-0.8,0.19C404.83,318.17,404.56,318.19,404.34,318.19z M400.87,313.54c0.46,0,0.92-0.12,1.35-0.35
		c0.44-0.24,0.83-0.56,1.17-0.97c0.34-0.41,0.62-0.88,0.83-1.43c0.21-0.54,0.31-1.13,0.31-1.76c0-0.86-0.19-1.53-0.57-2.01
		c-0.38-0.48-0.93-0.73-1.64-0.73c-0.47,0-0.92,0.12-1.35,0.35c-0.44,0.24-0.83,0.56-1.18,0.96c-0.35,0.4-0.62,0.87-0.84,1.42
		c-0.21,0.54-0.32,1.13-0.32,1.76c0,0.86,0.19,1.53,0.58,2.02C399.6,313.29,400.15,313.54,400.87,313.54z"/>
	<path class="st0" d="M409.61,310.01l1.33-5.48h2.73l-1.41,5.89c-0.05,0.22-0.09,0.43-0.12,0.64s-0.04,0.41-0.04,0.61
		c0,0.6,0.15,1.07,0.44,1.39c0.29,0.32,0.8,0.48,1.53,0.48c0.62,0,1.14-0.21,1.55-0.63c0.41-0.42,0.74-1.14,0.98-2.14l1.51-6.24
		h2.67l-1.51,6.2c-0.4,1.65-1.03,2.85-1.9,3.61c-0.87,0.76-2,1.14-3.38,1.14c-1.54,0-2.7-0.31-3.48-0.92s-1.17-1.55-1.17-2.83
		c0-0.24,0.03-0.52,0.08-0.83C409.49,310.59,409.55,310.29,409.61,310.01z"/>
	<path class="st0" d="M421.23,315.29l2.61-10.76h2.73l-2.59,10.76H421.23z"/>
	<path class="st0" d="M428.84,315.48c-0.42,0-0.77-0.11-1.03-0.34c-0.26-0.23-0.39-0.52-0.39-0.88c0-0.2,0.05-0.4,0.14-0.6
		c0.09-0.2,0.23-0.38,0.4-0.54c0.17-0.15,0.38-0.28,0.62-0.38c0.24-0.1,0.5-0.15,0.8-0.15c0.42,0,0.77,0.12,1.03,0.35
		c0.26,0.24,0.39,0.53,0.39,0.88c0,0.21-0.05,0.41-0.14,0.61c-0.09,0.2-0.23,0.37-0.4,0.53c-0.17,0.15-0.38,0.28-0.62,0.37
		S429.13,315.48,428.84,315.48z M428.82,311.56l0.92-5.25l0.38-2.08h2.73l-0.58,2.08l-1.65,5.25H428.82z"/>
</g>
<g>
	<g>
		<path class="st0" d="M472.96,215.2v-5.39h2.2c0.34,0,0.65,0.03,0.95,0.08c0.29,0.05,0.54,0.14,0.76,0.27
			c0.21,0.12,0.38,0.29,0.5,0.49c0.12,0.2,0.18,0.46,0.18,0.76c0,0.41-0.12,0.75-0.35,1c-0.24,0.25-0.55,0.43-0.94,0.54l1.55,2.25
			h-1.29l-1.4-2.11h-1v2.11H472.96z M474.11,212.33h0.93c0.44,0,0.79-0.08,1.02-0.23c0.24-0.15,0.35-0.38,0.35-0.69
			c0-0.31-0.12-0.53-0.35-0.65c-0.24-0.12-0.58-0.18-1.02-0.18h-0.93V212.33z"/>
	</g>
</g>
<path class="st0" d="M147.6,208.15h-24.08l-29.48,50.22l12.95,5.29l-18.9,4.84l-11.4,19.43h20.19l10.46-19h35.52l3.77,19h18.98
	L147.6,208.15z M114.4,256.19l18.73-33.74h0.48l6.7,33.74H114.4z"/>
<path class="st0" d="M169.31,275.3l38.19-34.08h-30.04l2.31-12.4h52.91l-2.43,12.51l-38.44,34.19h31.87l-2.31,12.4h-54.49
	L169.31,275.3z"/>
<path class="st0" d="M291,228.82h-52.91l-2.31,12.4h30.04l-38.19,34.08l-2.43,12.62h42.13l11.48-12.4h-28.68l38.44-34.19L291,228.82
	z"/>
<path class="st0" d="M354.39,234.89c2.25-3.74,5.08-6.92,8.49-9.54c4.75-3.65,10.32-5.47,16.73-5.47c9.89,0,15.85,4.32,17.88,12.96
	l18.37-1.46c-0.81-4.91-2.84-9.25-6.08-13.01c-3.25-3.76-7.38-6.71-12.41-8.83c-5.03-2.12-10.63-3.18-16.79-3.18
	c-9.53,0-18.06,2.11-25.59,6.33c-0.29,0.15-0.58,0.31-0.86,0.48c-2.18,1.29-4.23,2.7-6.14,4.24c-2.37,1.9-4.52,4-6.47,6.3
	c-1.76,2.08-3.34,4.32-4.75,6.72c-0.25,0.4-0.48,0.81-0.71,1.23c-0.59,1.06-1.13,2.14-1.63,3.23H354.39z M372.68,258.65h21.04
	c-2.03,5.14-5.47,9.35-10.34,12.62c-4.87,3.28-10.38,4.92-16.54,4.92c-5.76,0-10.3-1.56-13.63-4.69c-3.32-3.13-4.98-7.71-4.98-13.75
	c0-6.33,1.25-12.4,3.77-18.21c0.38-0.88,0.78-1.73,1.22-2.55l-4.78,3.35l-18.68,13.12c-0.09,1.34-0.14,2.69-0.14,4.07
	c0,6.48,1.58,12.16,4.74,17.04c3.16,4.88,7.48,8.62,12.95,11.23c5.48,2.61,11.62,3.91,18.43,3.91c11.6,0,21.09-3.57,28.47-10.73
	l-1.83,8.94h13.02l8.03-41.9h-38.32L372.68,258.65z"/>
<path class="st0" d="M442.82,289.26c-8.6,0-15.49-2.16-20.68-6.48c-5.19-4.32-7.79-10.21-7.79-17.65c0-6.78,1.52-13.05,4.56-18.83
	c3.04-5.77,7.52-10.37,13.44-13.8c5.92-3.43,12.97-5.14,21.17-5.14c8.59,0,15.49,2.16,20.68,6.48c5.19,4.32,7.79,10.21,7.79,17.65
	c0,6.85-1.52,13.15-4.56,18.88c-3.04,5.74-7.52,10.32-13.44,13.74C458.07,287.55,451.01,289.26,442.82,289.26z M452.8,239.09
	c-4.87,0-8.88,1.53-12.04,4.58c-3.16,3.06-5.46,6.65-6.87,10.78c-1.42,4.13-2.13,7.84-2.13,11.12c0,3.8,1.03,6.74,3.1,8.83
	c2.07,2.09,4.97,3.13,8.7,3.13c4.95,0,9-1.53,12.16-4.58c3.16-3.05,5.45-6.65,6.87-10.78c1.42-4.13,2.13-7.84,2.13-11.12
	c0-3.72-1.05-6.65-3.16-8.77C459.45,240.16,456.53,239.09,452.8,239.09z"/>
<g>
	<path class="st0" d="M334.77,237.89h11.96l-16.55,11.63l-49.85,35.01l-4.82,3.39l-7.49,5.26c-0.14,0.1-0.31,0.15-0.47,0.15
		c-0.21,0-0.42-0.09-0.58-0.25c-0.3-0.31-0.31-0.8-0.02-1.12l3.74-4.04l11.28-12.18l13.49-14.57c0.98-1.06,1.16-2.69,0.32-3.98
		c-0.61-0.93-1.69-1.43-2.8-1.43h-11.23l42.51-49.4h29.67l-22.7,24.6c-1.86,2.29-1.38,4.02-0.43,5.18
		C331.75,237.31,333.26,237.89,334.77,237.89z"/>
</g>
<polygon class="st0" points="110.83,208.14 117.97,208.14 90.99,256.19 85.3,253.47 "/>
<polygon class="st0" points="66.14,287.92 74.46,271.99 82.48,269.78 72.95,287.92 "/>
<g>
	<path class="st0" d="M475.38,217.84c-2.94,0-5.34-2.4-5.34-5.34c0-2.94,2.4-5.34,5.34-5.34c2.94,0,5.34,2.4,5.34,5.34
		C480.72,215.45,478.33,217.84,475.38,217.84z M475.38,208.16c-2.39,0-4.34,1.95-4.34,4.34c0,2.39,1.95,4.34,4.34,4.34
		c2.39,0,4.34-1.95,4.34-4.34C479.72,210.11,477.77,208.16,475.38,208.16z"/>
</g>
</svg>
