<svg width="548.13" height="524.55" xmlns="http://www.w3.org/2000/svg" xml:space="preserve" version="1.1">
 <style type="text/css">.st0{fill:#FFFFFF;}</style>

 <g>
  <title>Layer 1</title>
  <g id="svg_1">
   <path id="svg_2" d="m137.28,196.29l2.11,-8.84l-3.41,0l0.44,-1.91l9.56,0l-0.46,1.91l-3.41,0l-2.11,8.84l-2.72,0z" class="st0"/>
   <path id="svg_3" d="m146.66,191.01l1.33,-5.48l2.73,0l-1.41,5.89c-0.05,0.22 -0.09,0.43 -0.12,0.64c-0.03,0.21 -0.04,0.41 -0.04,0.61c0,0.6 0.15,1.07 0.44,1.39c0.29,0.32 0.8,0.48 1.53,0.48c0.62,0 1.14,-0.21 1.55,-0.63c0.41,-0.42 0.74,-1.14 0.98,-2.14l1.51,-6.24l2.67,0l-1.51,6.2c-0.4,1.65 -1.03,2.85 -1.9,3.61s-2,1.14 -3.38,1.14c-1.54,0 -2.7,-0.31 -3.48,-0.92s-1.17,-1.55 -1.17,-2.83c0,-0.24 0.03,-0.52 0.08,-0.83c0.07,-0.31 0.13,-0.61 0.19,-0.89z" class="st0"/>
   <path id="svg_4" d="m160.69,196.29l2.11,-8.84l-3.41,0l0.44,-1.91l9.56,0l-0.46,1.91l-3.41,0l-2.11,8.84l-2.72,0z" class="st0"/>
   <path id="svg_5" d="m171.28,196.29l2.11,-8.84l-3.41,0l0.44,-1.91l9.56,0l-0.46,1.91l-3.41,0l-2.11,8.84l-2.72,0z" class="st0"/>
   <path id="svg_6" d="m184.53,196.48c-0.74,0 -1.41,-0.1 -2.01,-0.31c-0.6,-0.2 -1.11,-0.5 -1.53,-0.89s-0.75,-0.87 -0.99,-1.44c-0.23,-0.57 -0.35,-1.21 -0.35,-1.92c0,-0.95 0.18,-1.82 0.54,-2.63c0.36,-0.81 0.84,-1.51 1.44,-2.1c0.6,-0.59 1.3,-1.05 2.1,-1.38s1.63,-0.5 2.51,-0.5c0.74,0 1.41,0.1 2.01,0.31c0.6,0.21 1.11,0.51 1.53,0.9s0.75,0.87 0.99,1.43c0.23,0.56 0.35,1.2 0.35,1.91c0,0.95 -0.18,1.82 -0.54,2.63c-0.36,0.81 -0.84,1.51 -1.44,2.1c-0.6,0.59 -1.3,1.05 -2.1,1.38s-1.63,0.51 -2.51,0.51zm0.14,-1.94c0.46,0 0.92,-0.12 1.35,-0.35c0.44,-0.24 0.83,-0.56 1.18,-0.97c0.35,-0.41 0.62,-0.88 0.83,-1.43c0.21,-0.54 0.31,-1.13 0.31,-1.76c0,-0.86 -0.19,-1.53 -0.57,-2.01s-0.93,-0.73 -1.64,-0.73c-0.46,0 -0.92,0.12 -1.35,0.35c-0.44,0.24 -0.83,0.56 -1.18,0.96c-0.35,0.4 -0.62,0.87 -0.84,1.42s-0.32,1.13 -0.32,1.76c0,0.86 0.19,1.53 0.58,2.02s0.93,0.74 1.65,0.74z" class="st0"/>
   <path id="svg_7" d="m205.22,199.19c-2.7,0 -4.51,-0.98 -5.44,-2.95c-0.96,-0.29 -1.7,-0.79 -2.24,-1.53c-0.54,-0.73 -0.81,-1.66 -0.81,-2.78c0,-0.95 0.18,-1.82 0.54,-2.63c0.36,-0.81 0.84,-1.51 1.44,-2.1c0.6,-0.59 1.3,-1.05 2.1,-1.38s1.63,-0.5 2.51,-0.5c0.74,0 1.41,0.1 2.01,0.31c0.6,0.21 1.11,0.51 1.53,0.9s0.75,0.87 0.99,1.43c0.23,0.56 0.35,1.2 0.35,1.91c0,0.86 -0.15,1.66 -0.44,2.39c-0.29,0.74 -0.69,1.39 -1.19,1.96c-0.5,0.57 -1.08,1.04 -1.75,1.42c-0.67,0.37 -1.39,0.62 -2.16,0.74c0.27,0.34 0.64,0.59 1.14,0.74c0.49,0.15 1.02,0.23 1.57,0.23c0.27,0 0.5,-0.01 0.7,-0.04c0.2,-0.03 0.4,-0.06 0.62,-0.11l0.12,1.7c-0.23,0.08 -0.49,0.14 -0.8,0.19c-0.29,0.08 -0.56,0.1 -0.79,0.1zm-3.46,-4.65c0.46,0 0.92,-0.12 1.35,-0.35c0.44,-0.24 0.83,-0.56 1.18,-0.97c0.35,-0.41 0.62,-0.88 0.83,-1.43c0.21,-0.54 0.31,-1.13 0.31,-1.76c0,-0.86 -0.19,-1.53 -0.57,-2.01s-0.93,-0.73 -1.64,-0.73c-0.46,0 -0.92,0.12 -1.35,0.35c-0.44,0.24 -0.83,0.56 -1.18,0.96c-0.35,0.4 -0.62,0.87 -0.84,1.42s-0.32,1.13 -0.32,1.76c0,0.86 0.19,1.53 0.58,2.02s0.93,0.74 1.65,0.74z" class="st0"/>
   <path id="svg_8" d="m210.5,191.01l1.33,-5.48l2.73,0l-1.41,5.89c-0.05,0.22 -0.09,0.43 -0.12,0.64c-0.03,0.21 -0.04,0.41 -0.04,0.61c0,0.6 0.15,1.07 0.44,1.39c0.29,0.32 0.8,0.48 1.53,0.48c0.62,0 1.14,-0.21 1.55,-0.63c0.41,-0.42 0.74,-1.14 0.98,-2.14l1.51,-6.24l2.67,0l-1.51,6.2c-0.4,1.65 -1.03,2.85 -1.9,3.61s-2,1.14 -3.38,1.14c-1.54,0 -2.7,-0.31 -3.48,-0.92s-1.17,-1.55 -1.17,-2.83c0,-0.24 0.03,-0.52 0.08,-0.83c0.07,-0.31 0.13,-0.61 0.19,-0.89z" class="st0"/>
   <path id="svg_9" d="m222.11,196.29l2.61,-10.76l7.69,0l-0.44,1.9l-5,0l-0.56,2.34l4.24,0l-0.44,1.9l-4.24,0l-0.68,2.72l5.16,0l-0.44,1.9l-7.9,0z" class="st0"/>
   <path id="svg_10" d="m232.61,196.29l2.61,-10.76l2.73,0l-2.15,8.86l4.92,0l-0.44,1.9l-7.67,0z" class="st0"/>
   <path id="svg_11" d="m242.57,196.29l2.61,-10.76l2.73,0l-2.15,8.86l4.92,0l-0.44,1.9l-7.67,0z" class="st0"/>
   <path id="svg_12" d="m256.73,196.48c-0.74,0 -1.41,-0.1 -2.01,-0.31c-0.6,-0.2 -1.11,-0.5 -1.53,-0.89s-0.75,-0.87 -0.99,-1.44c-0.23,-0.57 -0.35,-1.21 -0.35,-1.92c0,-0.95 0.18,-1.82 0.54,-2.63c0.36,-0.81 0.84,-1.51 1.44,-2.1c0.6,-0.59 1.3,-1.05 2.1,-1.38s1.63,-0.5 2.51,-0.5c0.74,0 1.41,0.1 2.01,0.31c0.6,0.21 1.11,0.51 1.53,0.9s0.75,0.87 0.99,1.43c0.23,0.56 0.35,1.2 0.35,1.91c0,0.95 -0.18,1.82 -0.54,2.63c-0.36,0.81 -0.84,1.51 -1.44,2.1c-0.6,0.59 -1.3,1.05 -2.1,1.38s-1.63,0.51 -2.51,0.51zm0.14,-1.94c0.46,0 0.92,-0.12 1.35,-0.35c0.44,-0.24 0.83,-0.56 1.18,-0.97c0.35,-0.41 0.62,-0.88 0.83,-1.43c0.21,-0.54 0.31,-1.13 0.31,-1.76c0,-0.86 -0.19,-1.53 -0.57,-2.01s-0.93,-0.73 -1.64,-0.73c-0.46,0 -0.92,0.12 -1.35,0.35c-0.44,0.24 -0.83,0.56 -1.18,0.96c-0.35,0.4 -0.62,0.87 -0.84,1.42s-0.32,1.13 -0.32,1.76c0,0.86 0.19,1.53 0.58,2.02s0.94,0.74 1.65,0.74z" class="st0"/>
   <path id="svg_13" d="m273.86,196.48c-0.76,0 -1.44,-0.1 -2.04,-0.31c-0.6,-0.2 -1.12,-0.5 -1.55,-0.89c-0.43,-0.39 -0.76,-0.86 -1,-1.42c-0.23,-0.56 -0.35,-1.19 -0.35,-1.89c0,-0.92 0.18,-1.79 0.54,-2.6c0.36,-0.81 0.85,-1.51 1.46,-2.11c0.62,-0.6 1.35,-1.07 2.19,-1.42c0.84,-0.35 1.75,-0.52 2.72,-0.52c0.76,0 1.43,0.15 2.02,0.45c0.59,0.3 1.07,0.72 1.44,1.26l-1.87,1.19c-0.24,-0.32 -0.5,-0.56 -0.78,-0.71c-0.28,-0.15 -0.6,-0.23 -0.96,-0.23c-0.56,0 -1.08,0.12 -1.55,0.37s-0.9,0.58 -1.25,1c-0.36,0.42 -0.64,0.9 -0.85,1.45c-0.21,0.55 -0.31,1.12 -0.31,1.72c0,0.84 0.21,1.5 0.64,1.98c0.42,0.48 1.12,0.73 2.07,0.73c0.39,0 0.76,-0.08 1.14,-0.23c0.37,-0.15 0.73,-0.35 1.08,-0.59l1.14,1.45c-0.2,0.15 -0.43,0.31 -0.7,0.46c-0.27,0.15 -0.56,0.29 -0.9,0.42s-0.69,0.23 -1.09,0.31c-0.38,0.09 -0.8,0.13 -1.24,0.13z" class="st0"/>
   <path id="svg_14" d="m279.66,196.29l2.61,-10.76l2.73,0l-1.04,4.17l4.44,0l1,-4.17l2.73,0l-2.59,10.76l-2.75,0l1.14,-4.6l-4.44,0l-1.08,4.6l-2.75,0z" class="st0"/>
   <path id="svg_15" d="m292.65,196.29l2.61,-10.76l7.69,0l-0.44,1.9l-5,0l-0.56,2.34l4.24,0l-0.44,1.9l-4.24,0l-0.68,2.72l5.16,0l-0.44,1.9l-7.9,0z" class="st0"/>
   <path id="svg_16" d="m312.59,196.48c-0.76,0 -1.44,-0.1 -2.04,-0.31c-0.6,-0.2 -1.12,-0.5 -1.55,-0.89s-0.76,-0.86 -1,-1.42c-0.23,-0.56 -0.35,-1.19 -0.35,-1.89c0,-0.92 0.18,-1.79 0.54,-2.6c0.36,-0.81 0.85,-1.51 1.46,-2.11c0.62,-0.6 1.35,-1.07 2.19,-1.42c0.84,-0.35 1.75,-0.52 2.72,-0.52c0.76,0 1.43,0.15 2.02,0.45c0.59,0.3 1.07,0.72 1.44,1.26l-1.87,1.19c-0.24,-0.32 -0.5,-0.56 -0.78,-0.71c-0.28,-0.15 -0.6,-0.23 -0.96,-0.23c-0.56,0 -1.08,0.12 -1.55,0.37c-0.48,0.25 -0.9,0.58 -1.25,1s-0.64,0.9 -0.85,1.45c-0.21,0.55 -0.31,1.12 -0.31,1.72c0,0.84 0.21,1.5 0.64,1.98s1.12,0.73 2.07,0.73c0.38,0 0.76,-0.08 1.14,-0.23c0.37,-0.15 0.73,-0.35 1.08,-0.59l1.14,1.45c-0.2,0.15 -0.43,0.31 -0.7,0.46c-0.27,0.15 -0.56,0.29 -0.9,0.42s-0.69,0.23 -1.09,0.31s-0.81,0.13 -1.24,0.13z" class="st0"/>
   <path id="svg_17" d="m318.38,196.29l2.61,-10.76l7.69,0l-0.44,1.9l-5,0l-0.56,2.34l4.24,0l-0.44,1.9l-4.24,0l-0.68,2.72l5.16,0l-0.44,1.9l-7.9,0z" class="st0"/>
   <path id="svg_18" d="m328.88,196.29l2.61,-10.76l4.06,0c0.64,0 1.23,0.05 1.77,0.15c0.54,0.1 1.01,0.26 1.4,0.48s0.7,0.51 0.93,0.86c0.23,0.35 0.34,0.78 0.34,1.27c0,0.51 -0.08,0.96 -0.25,1.36c-0.17,0.4 -0.4,0.76 -0.69,1.06c-0.29,0.31 -0.64,0.57 -1.05,0.79c-0.41,0.22 -0.85,0.4 -1.32,0.53l2.01,4.26l-2.87,0l-1.67,-3.94l-1.59,0l-0.94,3.94l-2.74,0zm4.12,-5.74l1.38,0c0.97,0 1.7,-0.17 2.19,-0.52c0.49,-0.35 0.74,-0.82 0.74,-1.41c0,-0.46 -0.19,-0.79 -0.56,-0.99c-0.37,-0.2 -0.91,-0.3 -1.61,-0.3l-1.38,0l-0.76,3.22z" class="st0"/>
   <path id="svg_19" d="m346.25,196.48c-0.76,0 -1.44,-0.1 -2.04,-0.31c-0.6,-0.2 -1.12,-0.5 -1.55,-0.89s-0.76,-0.86 -1,-1.42c-0.23,-0.56 -0.35,-1.19 -0.35,-1.89c0,-0.92 0.18,-1.79 0.54,-2.6c0.36,-0.81 0.85,-1.51 1.46,-2.11c0.62,-0.6 1.35,-1.07 2.19,-1.42c0.84,-0.35 1.75,-0.52 2.72,-0.52c0.76,0 1.43,0.15 2.02,0.45c0.59,0.3 1.07,0.72 1.44,1.26l-1.87,1.19c-0.24,-0.32 -0.5,-0.56 -0.78,-0.71c-0.28,-0.15 -0.6,-0.23 -0.96,-0.23c-0.56,0 -1.08,0.12 -1.55,0.37c-0.48,0.25 -0.9,0.58 -1.25,1s-0.64,0.9 -0.85,1.45c-0.21,0.55 -0.31,1.12 -0.31,1.72c0,0.84 0.21,1.5 0.64,1.98s1.12,0.73 2.07,0.73c0.38,0 0.76,-0.08 1.14,-0.23c0.37,-0.15 0.73,-0.35 1.08,-0.59l1.14,1.45c-0.2,0.15 -0.43,0.31 -0.7,0.46c-0.27,0.15 -0.56,0.29 -0.9,0.42s-0.69,0.23 -1.09,0.31s-0.8,0.13 -1.24,0.13z" class="st0"/>
   <path id="svg_20" d="m352.04,196.29l2.61,-10.76l2.73,0l-1.04,4.17l4.44,0l1,-4.17l2.73,0l-2.59,10.76l-2.75,0l1.14,-4.6l-4.44,0l-1.08,4.6l-2.75,0z" class="st0"/>
   <path id="svg_21" d="m365.03,196.29l2.61,-10.76l2.73,0l-2.59,10.76l-2.75,0z" class="st0"/>
   <path id="svg_22" d="m374.83,196.29l2.61,-10.76l7.69,0l-0.44,1.9l-5,0l-0.56,2.34l4.24,0l-0.44,1.9l-4.24,0l-0.68,2.72l5.16,0l-0.44,1.9l-7.9,0zm7.33,-11.16l-3.27,-2.21l1.87,-1.44l2.93,2.54l-1.53,1.11z" class="st0"/>
   <path id="svg_23" d="m398.34,199.19c-2.7,0 -4.51,-0.98 -5.44,-2.95c-0.96,-0.29 -1.7,-0.79 -2.24,-1.53c-0.54,-0.73 -0.81,-1.66 -0.81,-2.78c0,-0.95 0.18,-1.82 0.54,-2.63c0.36,-0.81 0.84,-1.51 1.44,-2.1c0.6,-0.59 1.3,-1.05 2.1,-1.38s1.63,-0.5 2.51,-0.5c0.74,0 1.41,0.1 2.01,0.31c0.6,0.21 1.11,0.51 1.53,0.9c0.42,0.39 0.75,0.87 0.99,1.43c0.23,0.56 0.35,1.2 0.35,1.91c0,0.86 -0.15,1.66 -0.44,2.39c-0.29,0.74 -0.69,1.39 -1.19,1.96c-0.5,0.57 -1.08,1.04 -1.75,1.42c-0.67,0.37 -1.39,0.62 -2.16,0.74c0.27,0.34 0.64,0.59 1.14,0.74c0.49,0.15 1.02,0.23 1.57,0.23c0.27,0 0.5,-0.01 0.7,-0.04c0.2,-0.03 0.4,-0.06 0.62,-0.11l0.12,1.7c-0.23,0.08 -0.49,0.14 -0.8,0.19c-0.3,0.08 -0.57,0.1 -0.79,0.1zm-3.47,-4.65c0.46,0 0.92,-0.12 1.35,-0.35c0.44,-0.24 0.83,-0.56 1.17,-0.97c0.34,-0.41 0.62,-0.88 0.83,-1.43c0.21,-0.54 0.31,-1.13 0.31,-1.76c0,-0.86 -0.19,-1.53 -0.57,-2.01c-0.38,-0.48 -0.93,-0.73 -1.64,-0.73c-0.47,0 -0.92,0.12 -1.35,0.35c-0.44,0.24 -0.83,0.56 -1.18,0.96c-0.35,0.4 -0.62,0.87 -0.84,1.42c-0.21,0.54 -0.32,1.13 -0.32,1.76c0,0.86 0.19,1.53 0.58,2.02c0.39,0.49 0.94,0.74 1.66,0.74z" class="st0"/>
   <path id="svg_24" d="m403.61,191.01l1.33,-5.48l2.73,0l-1.41,5.89c-0.05,0.22 -0.09,0.43 -0.12,0.64s-0.04,0.41 -0.04,0.61c0,0.6 0.15,1.07 0.44,1.39c0.29,0.32 0.8,0.48 1.53,0.48c0.62,0 1.14,-0.21 1.55,-0.63c0.41,-0.42 0.74,-1.14 0.98,-2.14l1.51,-6.24l2.67,0l-1.51,6.2c-0.4,1.65 -1.03,2.85 -1.9,3.61c-0.87,0.76 -2,1.14 -3.38,1.14c-1.54,0 -2.7,-0.31 -3.48,-0.92s-1.17,-1.55 -1.17,-2.83c0,-0.24 0.03,-0.52 0.08,-0.83c0.07,-0.31 0.13,-0.61 0.19,-0.89z" class="st0"/>
   <path id="svg_25" d="m415.23,196.29l2.61,-10.76l2.73,0l-2.59,10.76l-2.75,0z" class="st0"/>
   <path id="svg_26" d="m422.84,196.48c-0.42,0 -0.77,-0.11 -1.03,-0.34c-0.26,-0.23 -0.39,-0.52 -0.39,-0.88c0,-0.2 0.05,-0.4 0.14,-0.6c0.09,-0.2 0.23,-0.38 0.4,-0.54c0.17,-0.15 0.38,-0.28 0.62,-0.38c0.24,-0.1 0.5,-0.15 0.8,-0.15c0.42,0 0.77,0.12 1.03,0.35c0.26,0.24 0.39,0.53 0.39,0.88c0,0.21 -0.05,0.41 -0.14,0.61c-0.09,0.2 -0.23,0.37 -0.4,0.53c-0.17,0.15 -0.38,0.28 -0.62,0.37s-0.51,0.15 -0.8,0.15zm-0.02,-3.92l0.92,-5.25l0.38,-2.08l2.73,0l-0.58,2.08l-1.65,5.25l-1.8,0z" class="st0"/>
  </g>
  <g id="svg_27">
   <g id="svg_28">
    <path id="svg_29" d="m466.96,96.2l0,-5.39l2.2,0c0.34,0 0.65,0.03 0.95,0.08c0.29,0.05 0.54,0.14 0.76,0.27c0.21,0.12 0.38,0.29 0.5,0.49c0.12,0.2 0.18,0.46 0.18,0.76c0,0.41 -0.12,0.75 -0.35,1c-0.24,0.25 -0.55,0.43 -0.94,0.54l1.55,2.25l-1.29,0l-1.4,-2.11l-1,0l0,2.11l-1.16,0zm1.15,-2.87l0.93,0c0.44,0 0.79,-0.08 1.02,-0.23c0.24,-0.15 0.35,-0.38 0.35,-0.69c0,-0.31 -0.12,-0.53 -0.35,-0.65c-0.24,-0.12 -0.58,-0.18 -1.02,-0.18l-0.93,0l0,1.75z" class="st0"/>
   </g>
  </g>
  <path id="svg_30" d="m141.6,89.15l-24.08,0l-29.48,50.22l12.95,5.29l-18.9,4.84l-11.4,19.43l20.19,0l10.46,-19l35.52,0l3.77,19l18.98,0l-18.01,-79.78zm-33.2,48.04l18.73,-33.74l0.48,0l6.7,33.74l-25.91,0z" class="st0"/>
  <path id="svg_31" d="m163.31,156.3l38.19,-34.08l-30.04,0l2.31,-12.4l52.91,0l-2.43,12.51l-38.44,34.19l31.87,0l-2.31,12.4l-54.49,0l2.43,-12.62z" class="st0"/>
  <path id="svg_32" d="m285,109.82l-52.91,0l-2.31,12.4l30.04,0l-38.19,34.08l-2.43,12.62l42.13,0l11.48,-12.4l-28.68,0l38.44,-34.19l2.43,-12.51z" class="st0"/>
  <path id="svg_33" d="m348.39,115.89c2.25,-3.74 5.08,-6.92 8.49,-9.54c4.75,-3.65 10.32,-5.47 16.73,-5.47c9.89,0 15.85,4.32 17.88,12.96l18.37,-1.46c-0.81,-4.91 -2.84,-9.25 -6.08,-13.01c-3.25,-3.76 -7.38,-6.71 -12.41,-8.83c-5.03,-2.12 -10.63,-3.18 -16.79,-3.18c-9.53,0 -18.06,2.11 -25.59,6.33c-0.29,0.15 -0.58,0.31 -0.86,0.48c-2.18,1.29 -4.23,2.7 -6.14,4.24c-2.37,1.9 -4.52,4 -6.47,6.3c-1.76,2.08 -3.34,4.32 -4.75,6.72c-0.25,0.4 -0.48,0.81 -0.71,1.23c-0.59,1.06 -1.13,2.14 -1.63,3.23l19.96,0zm18.29,23.76l21.04,0c-2.03,5.14 -5.47,9.35 -10.34,12.62c-4.87,3.28 -10.38,4.92 -16.54,4.92c-5.76,0 -10.3,-1.56 -13.63,-4.69c-3.32,-3.13 -4.98,-7.71 -4.98,-13.75c0,-6.33 1.25,-12.4 3.77,-18.21c0.38,-0.88 0.78,-1.73 1.22,-2.55l-4.78,3.35l-18.68,13.12c-0.09,1.34 -0.14,2.69 -0.14,4.07c0,6.48 1.58,12.16 4.74,17.04c3.16,4.88 7.48,8.62 12.95,11.23c5.48,2.61 11.62,3.91 18.43,3.91c11.6,0 21.09,-3.57 28.47,-10.73l-1.83,8.94l13.02,0l8.03,-41.9l-38.32,0l-2.43,12.63z" class="st0"/>
  <path id="svg_34" d="m436.82,170.26c-8.6,0 -15.49,-2.16 -20.68,-6.48c-5.19,-4.32 -7.79,-10.21 -7.79,-17.65c0,-6.78 1.52,-13.05 4.56,-18.83c3.04,-5.77 7.52,-10.37 13.44,-13.8c5.92,-3.43 12.97,-5.14 21.17,-5.14c8.59,0 15.49,2.16 20.68,6.48c5.19,4.32 7.79,10.21 7.79,17.65c0,6.85 -1.52,13.15 -4.56,18.88c-3.04,5.74 -7.52,10.32 -13.44,13.74c-5.92,3.44 -12.98,5.15 -21.17,5.15zm9.98,-50.17c-4.87,0 -8.88,1.53 -12.04,4.58c-3.16,3.06 -5.46,6.65 -6.87,10.78c-1.42,4.13 -2.13,7.84 -2.13,11.12c0,3.8 1.03,6.74 3.1,8.83c2.07,2.09 4.97,3.13 8.7,3.13c4.95,0 9,-1.53 12.16,-4.58c3.16,-3.05 5.45,-6.65 6.87,-10.78c1.42,-4.13 2.13,-7.84 2.13,-11.12c0,-3.72 -1.05,-6.65 -3.16,-8.77c-2.11,-2.12 -5.03,-3.19 -8.76,-3.19z" class="st0"/>
  <g id="svg_35">
   <path id="svg_36" d="m328.77,118.89l11.96,0l-16.55,11.63l-49.85,35.01l-4.82,3.39l-7.49,5.26c-0.14,0.1 -0.31,0.15 -0.47,0.15c-0.21,0 -0.42,-0.09 -0.58,-0.25c-0.3,-0.31 -0.31,-0.8 -0.02,-1.12l3.74,-4.04l11.28,-12.18l13.49,-14.57c0.98,-1.06 1.16,-2.69 0.32,-3.98c-0.61,-0.93 -1.69,-1.43 -2.8,-1.43l-11.23,0l42.51,-49.4l29.67,0l-22.7,24.6c-1.86,2.29 -1.38,4.02 -0.43,5.18c0.95,1.17 2.46,1.75 3.97,1.75z" class="st0"/>
  </g>
  <polygon id="svg_37" points="104.83000183105469,89.13999938964844 111.97000122070312,89.13999938964844 84.98999786376953,137.19000244140625 79.30000305175781,134.47000122070312 " class="st0"/>
  <polygon id="svg_38" points="60.13999938964844,168.92001342773438 68.45999908447266,152.989990234375 76.4800033569336,150.77999877929688 66.94999694824219,168.92001342773438 " class="st0"/>
  <g id="svg_39">
   <path id="svg_40" d="m469.38,98.84c-2.94,0 -5.34,-2.4 -5.34,-5.34c0,-2.94 2.4,-5.34 5.34,-5.34c2.94,0 5.34,2.4 5.34,5.34c0,2.95 -2.39,5.34 -5.34,5.34zm0,-9.68c-2.39,0 -4.34,1.95 -4.34,4.34c0,2.39 1.95,4.34 4.34,4.34c2.39,0 4.34,-1.95 4.34,-4.34c0,-2.39 -1.95,-4.34 -4.34,-4.34z" class="st0"/>
  </g>
 </g>
</svg>